<svg xmlns="http://www.w3.org/2000/svg" viewBox="0 0 1024 1365">
  <defs>
    <linearGradient id="bg" x1="0" y1="0" x2="0" y2="1">
      <stop offset="0" stop-color="#0F1428"/>
      <stop offset="0.6" stop-color="#1A1F3A"/>
      <stop offset="1" stop-color="#232949"/>
    </linearGradient>
    <radialGradient id="glow" cx="0.5" cy="0.5" r="0.5">
      <stop offset="0" stop-color="#C9A961" stop-opacity="0.08"/>
      <stop offset="1" stop-color="#C9A961" stop-opacity="0"/>
    </radialGradient>
  </defs>
  <rect width="1024" height="1365" fill="url(#bg)"/>
  <rect x="200" y="400" width="624" height="624" fill="url(#glow)"/>
  <rect x="36" y="36" width="952" height="1293" fill="none" stroke="#C9A961" stroke-width="2" stroke-opacity="0.9"/>
  <rect x="52" y="52" width="920" height="1261" fill="none" stroke="#C9A961" stroke-width="1" stroke-opacity="0.35"/>
  <g stroke="#C9A961" stroke-width="2.5" fill="none">
    <path d="M36 96 L36 36 L96 36"/>
    <path d="M988 96 L988 36 L928 36"/>
    <path d="M36 1269 L36 1329 L96 1329"/>
    <path d="M988 1269 L988 1329 L928 1329"/>
  </g>
  <!-- Silhouette: Ranger female — riding coat, compass, braided hair -->
  <g stroke="#C9A961" stroke-width="2" fill="none" stroke-linecap="round">
    <!-- Explorer hat feminine -->
    <path d="M430 460 Q512 442 594 460 L618 500 L406 500 Z" stroke-opacity="0.8"/>
    <path d="M412 500 L612 500" stroke-opacity="0.6"/>
    <path d="M440 490 L584 490" stroke-opacity="0.4"/>
    <ellipse cx="512" cy="580" rx="62" ry="76"/>
    <!-- Braid falling over shoulder -->
    <path d="M460 640 Q440 720 460 810" stroke-opacity="0.55"/>
    <path d="M452 670 L468 685 M448 720 L464 735 M446 770 L462 785" stroke-opacity="0.4"/>
    <!-- Riding coat, tapered -->
    <path d="M410 720 Q440 680 512 680 Q584 680 614 720 L640 990 L384 990 Z" stroke-opacity="0.75"/>
    <!-- Belt -->
    <path d="M410 880 L614 880" stroke-opacity="0.45"/>
    <circle cx="512" cy="880" r="12" stroke-opacity="0.45"/>
    <!-- Compass -->
    <circle cx="630" cy="860" r="34" stroke-width="2.5"/>
    <path d="M630 834 L630 886 M604 860 L656 860" stroke-opacity="0.6" stroke-width="1.5"/>
    <path d="M630 834 L641 858 L630 863 L619 858 Z" fill="#C9A961" stroke="none"/>
    <!-- Map tube slung -->
    <path d="M350 790 L350 970 Q350 990 370 990 L388 990 Q408 990 408 970 L408 790 Z" stroke-opacity="0.6"/>
  </g>
  <text x="512" y="1110" text-anchor="middle" font-family="Cinzel, Georgia, serif" font-size="82" font-weight="600" fill="#C9A961" letter-spacing="16">RANGER</text>
  <text x="512" y="1170" text-anchor="middle" font-family="'Cormorant Garamond', Georgia, serif" font-size="38" font-style="italic" fill="#E8E1CC" opacity="0.7">Exploratrix Feminina</text>
  <text x="512" y="1230" text-anchor="middle" font-family="'Shippori Mincho B1', serif" font-size="30" fill="#E8E1CC" letter-spacing="8">探索士 ・ 女性型</text>
  <text x="512" y="1290" text-anchor="middle" font-family="serif" font-size="18" fill="#E8E1CC" opacity="0.3" letter-spacing="6">— PLACEHOLDER —</text>
</svg>
