<svg xmlns="http://www.w3.org/2000/svg" viewBox="0 0 1024 1365">
  <defs>
    <linearGradient id="bg" x1="0" y1="0" x2="0" y2="1">
      <stop offset="0" stop-color="#0F1428"/>
      <stop offset="0.6" stop-color="#1A1F3A"/>
      <stop offset="1" stop-color="#232949"/>
    </linearGradient>
    <radialGradient id="glow" cx="0.5" cy="0.5" r="0.5">
      <stop offset="0" stop-color="#C9A961" stop-opacity="0.08"/>
      <stop offset="1" stop-color="#C9A961" stop-opacity="0"/>
    </radialGradient>
  </defs>
  <rect width="1024" height="1365" fill="url(#bg)"/>
  <rect x="200" y="400" width="624" height="624" fill="url(#glow)"/>
  <rect x="36" y="36" width="952" height="1293" fill="none" stroke="#C9A961" stroke-width="2" stroke-opacity="0.9"/>
  <rect x="52" y="52" width="920" height="1261" fill="none" stroke="#C9A961" stroke-width="1" stroke-opacity="0.35"/>
  <g stroke="#C9A961" stroke-width="2.5" fill="none">
    <path d="M36 96 L36 36 L96 36"/>
    <path d="M988 96 L988 36 L928 36"/>
    <path d="M36 1269 L36 1329 L96 1329"/>
    <path d="M988 1269 L988 1329 L928 1329"/>
  </g>
  <!-- Silhouette: Sage female — long robe, herb vial -->
  <g stroke="#C9A961" stroke-width="2" fill="none" stroke-linecap="round">
    <ellipse cx="512" cy="560" rx="62" ry="78"/>
    <path d="M450 520 Q400 600 420 680" stroke-opacity="0.55"/>
    <path d="M574 520 Q624 600 604 680" stroke-opacity="0.55"/>
    <!-- Flowing robe -->
    <path d="M410 720 Q440 680 512 680 Q584 680 614 720 L660 1000 L364 1000 Z" stroke-opacity="0.75"/>
    <!-- Robe panel line -->
    <path d="M512 680 L512 1000" stroke-opacity="0.3"/>
    <!-- Herb vial held close -->
    <path d="M472 820 L472 910 Q472 930 492 930 L532 930 Q552 930 552 910 L552 820 Z" stroke-opacity="0.7"/>
    <path d="M482 820 L542 820" stroke-opacity="0.7"/>
    <!-- Open book -->
    <path d="M640 840 L740 860 L740 940 L640 920 Z" stroke-opacity="0.5"/>
    <path d="M690 850 L690 930" stroke-opacity="0.3"/>
  </g>
  <text x="512" y="1110" text-anchor="middle" font-family="Cinzel, Georgia, serif" font-size="96" font-weight="600" fill="#C9A961" letter-spacing="20">SAGE</text>
  <text x="512" y="1170" text-anchor="middle" font-family="'Cormorant Garamond', Georgia, serif" font-size="38" font-style="italic" fill="#E8E1CC" opacity="0.7">Herbaria Feminina</text>
  <text x="512" y="1230" text-anchor="middle" font-family="'Shippori Mincho B1', serif" font-size="30" fill="#E8E1CC" letter-spacing="8">薬草師 ・ 女性型</text>
  <text x="512" y="1290" text-anchor="middle" font-family="serif" font-size="18" fill="#E8E1CC" opacity="0.3" letter-spacing="6">— PLACEHOLDER —</text>
</svg>
